<?xml version="1.0" encoding="UTF-8" standalone="no"?>
<!-- Created with Inkscape (http://www.inkscape.org/) -->

<svg
   version="1.1"
   id="svg1"
   width="1450.9834"
   height="1450.9865"
   viewBox="0 0 1450.9834 1450.9865"
   sodipodi:docname="logo.svg"
   inkscape:version="1.3.2 (1:1.3.2+202311252150+091e20ef0f)"
   xmlns:inkscape="http://www.inkscape.org/namespaces/inkscape"
   xmlns:sodipodi="http://sodipodi.sourceforge.net/DTD/sodipodi-0.dtd"
   xmlns="http://www.w3.org/2000/svg"
   xmlns:svg="http://www.w3.org/2000/svg">
  <defs
     id="defs1" />
  <sodipodi:namedview
     id="namedview1"
     pagecolor="#ffffff"
     bordercolor="#000000"
     borderopacity="0.25"
     inkscape:showpageshadow="2"
     inkscape:pageopacity="0.0"
     inkscape:pagecheckerboard="0"
     inkscape:deskcolor="#d1d1d1"
     inkscape:zoom="0.51"
     inkscape:cx="291.17647"
     inkscape:cy="280.39216"
     inkscape:window-width="1850"
     inkscape:window-height="1016"
     inkscape:window-x="0"
     inkscape:window-y="0"
     inkscape:window-maximized="1"
     inkscape:current-layer="group-R5">
    <inkscape:page
       x="0"
       y="0"
       inkscape:label="1"
       id="page1"
       width="1450.9834"
       height="1450.9865"
       margin="0"
       bleed="0" />
  </sodipodi:namedview>
  <g
     id="g1"
     inkscape:groupmode="layer"
     inkscape:label="1"
     transform="translate(-74.509865,-74.506706)">
    <g
       id="group-R5">
      <path
         id="path3"
         d="M 6000,11261.2 C 3098.97,11261.2 738.824,8901.03 738.824,6000 738.824,3098.98 3098.97,738.801 6000,738.801 c 2901.02,0 5261.2,2360.179 5261.2,5261.199 0,2901.03 -2360.18,5261.2 -5261.2,5261.2 z m 0,-10702.399 c -734.51,0 -1447.1,143.898 -2117.98,427.699 -647.94,274 -1229.83,666.3 -1729.51,1166.01 -499.68,499.68 -892,1081.57 -1166.057,1729.51 C 702.699,4552.89 558.824,5265.49 558.824,6000 c 0,734.51 143.875,1447.1 427.629,2117.98 274.057,647.94 666.377,1229.83 1166.057,1729.51 499.68,499.71 1081.57,892.01 1729.51,1166.01 670.88,283.8 1383.47,427.7 2117.98,427.7 734.51,0 1447.11,-143.9 2117.98,-427.7 647.94,-274 1229.83,-666.3 1729.51,-1166.01 499.71,-499.68 892.01,-1081.57 1166.01,-1729.51 283.8,-670.88 427.7,-1383.47 427.7,-2117.98 0,-734.51 -143.9,-1447.11 -427.7,-2117.98 -274,-647.94 -666.3,-1229.83 -1166.01,-1729.51 C 9347.81,1652.8 8765.92,1260.5 8117.98,986.5 7447.11,702.699 6734.51,558.801 6000,558.801"
         style="fill:#ffffff;fill-opacity:1;fill-rule:nonzero;stroke:none"
         transform="matrix(0.13333333,0,0,-0.13333333,0,1600)" />
      <path
         id="path4"
         d="m 5953.82,3859.63 c -0.25,57.5 -0.51,116.96 -0.28,177.34 0.36,102.25 -5.49,190.51 -11.68,283.96 -5.5,82.95 -11.18,168.71 -12.25,265.73 l -0.1,8.72 c -2.29,208.68 -4.1,373.27 -23.64,585.82 -20.32,221.07 -24.23,442.84 -28.01,657.3 l -0.01,0.61 c -2.39,135.65 -4.87,275.91 -11.49,413.87 -2.99,62.05 -6.4,124.83 -9.71,185.54 l -0.09,1.72 c -14.92,274.23 -30.34,557.8 -10.6,853.95 7.67,103.64 17.52,206.73 27.95,315.88 l 0.07,0.75 c 21.69,227.13 44.11,461.92 45.19,696.28 0.75,164.54 -25.24,341.12 -61.81,419.88 -29.07,62.62 -73.13,101.37 -97.27,101.37 -0.46,0 -0.87,-0.01 -1.27,-0.04 -13.62,-0.92 -28.52,-21.36 -39.89,-54.68 -4.05,-12.38 -8.17,-24.92 -12.27,-37.35 -27.64,-83.83 -56.21,-170.51 -81.53,-271.78 -0.19,-0.77 -0.42,-1.61 -0.68,-2.44 -14.32,-46.54 -30.44,-96.31 -44.66,-140.23 -36.27,-112.04 -73.78,-227.89 -98.69,-335.82 -19.46,-94.12 -35.34,-173.92 -49.35,-244.33 l -0.53,-2.67 c -36.81,-185.14 -59.05,-296.98 -97.71,-422.87 -15.16,-59.72 -60.72,-239.69 -78.03,-471.11 -1.78,-23.8 -21.86,-42.44 -45.72,-42.44 -1.14,0 -2.29,0.04 -3.44,0.13 -12.21,0.91 -23.34,6.52 -31.34,15.81 -7.99,9.28 -11.89,21.13 -10.97,33.35 12.07,161.38 38.52,320.98 80.86,487.91 0.2,0.78 0.4,1.49 0.62,2.21 37.47,121.8 59.41,232.13 95.77,414.92 14.16,71.17 30.2,151.85 50.24,248.69 26.03,112.84 64.15,230.6 101.02,344.48 14.78,45.63 30.05,92.81 43.93,137.86 26.05,104.01 55.04,191.97 83.09,277.05 23.73,72.01 48.14,146.08 69.91,227.7 22.75,85.33 27.46,189.36 12.59,278.29 -14.72,88.03 -46.96,147.08 -86.25,157.96 -27.01,7.48 -51.99,11.28 -74.25,11.28 -104.05,0.01 -159.24,-82.45 -224.58,-234.6 -6.28,-16.52 -13.22,-33.02 -20.62,-49.05 -65.95,-142.83 -172.96,-365.42 -257.49,-522.65 -88.82,-165.19 -101.14,-206.35 -134.07,-316.35 -7.78,-26 -16.55,-55.27 -27.6,-90.6 -16.51,-53.23 -33.8,-108.07 -52.1,-166.13 l -1.06,-3.37 c -41.68,-132.21 -84.77,-268.9 -125.4,-407.17 -68.26,-232.32 -111.99,-409.76 -137.62,-558.4 -3.82,-22.06 -22.81,-38.07 -45.17,-38.07 -2.61,0 -5.24,0.22 -7.83,0.67 -12.06,2.08 -22.61,8.74 -29.67,18.75 -7.07,10.01 -9.81,22.17 -7.72,34.25 26.25,152.22 70.74,332.92 140,568.66 40.77,138.74 83.87,275.48 125.55,407.73 l 0.37,1.15 c 17.64,55.96 35.89,113.83 53.07,169.21 10.92,34.9 19.57,63.82 27.21,89.34 34.99,116.83 48.04,160.42 141.24,333.77 83.39,155.11 189.21,375.2 254.57,516.73 6.81,16.53 13.71,33.25 20.81,49.95 54.05,146.69 31.2,259.33 -62.73,309.08 -31.62,16.74 -70.18,25.59 -111.49,25.6 -118.74,0.01 -289.53,-72.98 -412.76,-277.88 -26.22,-43.6 -51.69,-82.54 -76.32,-120.2 -39.27,-60.06 -73.18,-111.91 -99.5,-166.18 -48.2,-124.46 -119.87,-236.64 -189.19,-345.12 -59.11,-92.51 -120.22,-188.17 -164.23,-288.4 -114.37,-260.51 -191.35,-466.74 -265.71,-711.81 -29.21,-96.25 -53.11,-225.28 -76.21,-350.06 -22.18,-119.72 -43.12,-232.8 -68.95,-323.21 -5.6,-19.58 -23.75,-33.26 -44.14,-33.26 -4.22,0 -8.42,0.59 -12.51,1.74 -24.37,6.97 -38.5,32.4 -31.56,56.72 24.63,86.17 45.18,197.15 66.95,314.63 23.57,127.32 47.93,258.88 78.63,360.08 75.51,248.84 153.59,458.04 269.51,722.05 46.87,106.75 109.94,205.46 170.93,300.92 72.19,112.98 146.84,229.82 191.2,356.57 55.01,146.73 66.63,255.57 34.69,323.93 -16.31,34.94 -44.41,59.01 -85.9,73.59 -20.08,7.05 -41.95,10.63 -65,10.63 -92.14,0 -183.69,-55.04 -238.63,-106.55 -88.87,-83.34 -249.49,-241.77 -309.21,-310.49 -61.59,-70.88 -172.93,-230.36 -220.62,-316.01 -14.39,-25.87 -28.18,-52.81 -42.78,-81.33 -33.9,-66.25 -72.21,-141.12 -130.28,-225.09 29.1,-36.86 50.28,-76.79 61.64,-116.35 107.32,-334.05 124.2,-709.84 48.82,-1086.76 -0.13,-0.66 -0.31,-1.45 -0.5,-2.22 -45.78,-183.12 -34.93,-313.99 -18.51,-512.1 l 0.23,-2.72 c 3.85,-46.33 5.3,-89.99 6.72,-132.21 5.16,-153.8 8.89,-264.92 114.7,-346.31 67.72,-52.09 166.46,-125.81 261.95,-197.1 123.73,-92.38 240.55,-179.6 277.92,-210.87 206.59,-172.92 376.05,-373.45 549.46,-650.19 110.66,-176.57 220.98,-490.57 373.67,-925.15 4.07,-11.57 3.39,-24.02 -1.92,-35.07 -5.3,-11.04 -14.58,-19.36 -26.15,-23.42 -4.9,-1.72 -10,-2.59 -15.17,-2.59 -19.46,0 -36.86,12.32 -43.29,30.66 -150.75,429.04 -259.64,738.96 -364.87,906.86 -168.08,268.24 -331.73,462.09 -530.61,628.56 -35.4,29.63 -151.24,116.11 -273.88,207.67 l -1.12,0.84 c -95.34,71.18 -193.93,144.79 -261.92,197.1 -140.12,107.77 -144.91,250.58 -150.45,415.94 -1.38,41.09 -2.8,83.59 -6.45,127.65 l -0.23,2.71 c -17.16,206.91 -28.49,343.63 20.68,541 72.1,361.38 55.93,721.26 -46.76,1040.76 l -0.1,0.31 -0.09,0.31 c -24.94,87.28 -111.33,169.57 -205.39,195.69 -20.24,5.61 -40.42,8.46 -60,8.46 -50.67,0 -96.87,-19 -137.31,-56.47 -31.72,-33.32 -47.03,-209.72 -56.19,-315.25 -8.36,-96.28 -15.57,-179.42 -31.41,-226.58 -27.8,-82.82 -62.53,-162.12 -99.29,-246.06 l -0.73,-1.67 c -18.24,-41.68 -37.11,-84.78 -56.54,-131.41 -29.31,-67.02 -62.12,-121.67 -93.85,-174.53 -57.89,-96.44 -107.88,-179.72 -101.29,-293.47 10.82,-186.94 27.72,-386.03 44.07,-578.58 13.73,-161.65 27.92,-328.81 38.08,-484.84 l 0.13,-2.05 c 23.02,-353.58 46.82,-719.2 187.24,-1039.59 8.32,-18.97 34.64,-82.52 65.12,-156.11 l 0.26,-0.62 c 49.73,-120.04 111.63,-269.44 136.75,-325.84 30.92,-69.42 76.71,-153.95 125.19,-243.45 55.33,-102.12 112.53,-207.73 151.6,-298.82 62.46,-135.37 81.25,-219.62 107.25,-336.21 l 0.43,-1.92 c 4.52,-20.3 9.3,-41.72 14.6,-64.7 0.15,-0.59 0.33,-1.46 0.47,-2.34 34.98,-186.46 5.65,-864.01 -17.69,-1097.15 132.53,-4 569.67,-6.53 1139.6,-6.53 523.93,0 1111.5,2.32 1274.22,7.5 44.51,135.6 60.4,202.32 74.47,261.42 16.62,69.76 30.99,130.07 82.66,272.84 0.12,1.96 0.36,3.88 0.72,5.74 61.78,316.65 60.56,593.84 59.27,887.3 z m 158.32,1979.03 v 0.25 l 10,0.1 c 2.4,135.68 4.87,275.98 11.5,413.97 2.97,61.74 6.37,124.2 9.65,184.61 l 0.15,2.65 c 14.91,274.24 30.34,557.82 10.58,854.29 -7.65,103.25 -17.49,206.31 -27.91,315.41 l -0.09,0.89 c -21.69,227.08 -44.11,461.89 -45.19,696.27 -0.75,164.55 25.25,341.13 61.81,419.88 29.07,62.62 73.06,101.38 97.14,101.38 0.46,0 0.91,-0.01 1.43,-0.05 13.59,-0.92 28.49,-21.36 39.78,-54.44 4.13,-12.61 8.25,-25.16 12.35,-37.59 27.64,-83.85 56.22,-170.54 81.49,-271.62 0.2,-0.83 0.43,-1.66 0.69,-2.52 14.43,-46.87 30.51,-96.51 44.74,-140.45 36.25,-111.99 73.74,-227.79 98.42,-334.65 19.94,-96.42 35.96,-176.95 50.09,-247.99 36.83,-185.21 59.09,-297.09 97.73,-422.9 15.15,-59.76 60.72,-239.8 78.02,-471.12 1.79,-23.8 21.88,-42.44 45.74,-42.44 1.12,0 2.24,0.04 3.41,0.13 12.22,0.91 23.35,6.52 31.34,15.81 8,9.28 11.9,21.12 10.98,33.34 -12.07,161.41 -38.52,321.01 -80.86,487.92 -0.19,0.75 -0.39,1.48 -0.62,2.21 -37.47,121.8 -59.42,232.14 -95.77,414.94 -14.11,70.96 -30.11,151.39 -50.46,249.7 -25.82,111.87 -63.94,229.6 -100.8,343.45 -14.78,45.64 -30.05,92.81 -43.93,137.86 -26.06,104.06 -55.05,192 -83.24,277.5 -23.6,71.62 -48,145.67 -69.76,227.25 -22.76,85.33 -27.46,189.37 -12.59,278.29 14.72,88.03 46.96,147.08 86.25,157.96 27.04,7.49 52.04,11.29 74.3,11.29 104.01,0 159.18,-82.43 224.5,-234.56 6.26,-16.46 13.2,-32.98 20.65,-49.1 65.91,-142.76 172.9,-365.31 257.5,-522.66 88.79,-165.15 101.12,-206.31 134.06,-316.33 7.72,-25.77 16.46,-54.98 27.57,-90.53 17.02,-54.86 35.41,-113.18 53.19,-169.58 l 0.22,-0.7 c 41.6,-131.97 84.61,-268.43 125.18,-406.47 68.27,-232.36 112,-409.8 137.61,-558.4 3.81,-22.07 22.77,-38.09 45.1,-38.09 2.66,0 5.35,0.24 7.89,0.69 24.92,4.29 41.7,28.06 37.41,52.99 -26.24,152.19 -70.72,332.89 -140,568.67 -40.99,139.5 -84.17,276.45 -125.92,408.88 l -1.37,4.34 c -18.16,57.6 -35.3,112.01 -51.73,164.94 -10.98,35.14 -19.64,64.05 -27.29,89.61 -34.88,116.49 -47.93,160.08 -141.13,333.43 -83.44,155.2 -189.26,375.3 -254.62,516.82 -6.79,16.49 -13.68,33.17 -20.76,49.82 -54.07,146.72 -31.21,259.37 62.73,309.12 32.09,16.99 69.6,25.61 111.5,25.61 118.74,0 289.53,-73.01 412.75,-277.89 26.3,-43.73 51.74,-82.63 76.35,-120.24 39.24,-60.01 73.16,-111.88 99.52,-166.23 48.34,-124.65 119.91,-236.66 189.12,-345.01 59.1,-92.49 120.22,-188.14 164.24,-288.42 114.37,-260.47 191.35,-466.69 265.73,-711.81 29.17,-96.16 53.06,-225.14 76.22,-350.15 22.17,-119.7 43.11,-232.75 68.93,-323.12 5.6,-19.59 23.74,-33.26 44.11,-33.26 4.24,0 8.46,0.58 12.59,1.76 11.79,3.36 21.55,11.11 27.5,21.83 5.95,10.71 7.37,23.09 4.01,34.87 -24.64,86.22 -45.2,197.23 -66.97,314.76 -23.57,127.25 -47.94,258.83 -78.62,359.95 -75.5,248.83 -153.58,458.03 -269.5,722.05 -46.87,106.75 -109.94,205.45 -170.96,300.96 -72.18,112.98 -146.82,229.81 -191.52,357.49 -54.73,145.94 -66.28,254.6 -34.35,322.97 16.33,34.94 44.43,59.01 85.9,73.59 20.09,7.06 41.97,10.64 65.02,10.64 92.16,0 183.69,-55.05 238.61,-106.56 88.81,-83.27 249.41,-241.67 309.21,-310.49 61.57,-70.86 172.92,-230.33 220.63,-316 14.32,-25.74 28.04,-52.54 42.77,-81.32 33.89,-66.23 72.19,-141.08 130.23,-225.04 -28.99,-36.68 -50.07,-76.36 -61.33,-115.6 -107.48,-334.59 -124.46,-710.67 -49.08,-1087.55 0.13,-0.67 0.28,-1.35 0.48,-2.16 45.81,-183.24 34.96,-314.11 18.53,-512.2 l -0.23,-2.76 c -3.83,-46.21 -5.29,-89.89 -6.71,-132.14 -5.16,-153.8 -8.88,-264.93 -114.7,-346.33 -67.45,-51.88 -165.74,-125.27 -260.81,-196.25 l -1.34,-1 c -123.66,-92.32 -240.46,-179.53 -277.73,-210.73 -206.57,-172.9 -376.03,-373.42 -549.45,-650.17 -110.64,-176.55 -220.96,-490.51 -373.68,-925.17 -8.38,-23.86 4.21,-50.1 28.08,-58.49 4.91,-1.72 10.02,-2.59 15.19,-2.59 19.43,0 36.82,12.33 43.32,30.79 150.71,428.95 259.61,738.86 364.81,906.74 168.09,268.24 331.74,462.09 530.61,628.56 35.28,29.52 150.92,115.87 273.36,207.28 l 0.5,0.38 1.01,0.74 c 95.39,71.23 194.04,144.88 262.06,197.21 140.11,107.77 144.9,250.59 150.45,415.97 1.38,41.1 2.8,83.61 6.45,127.63 l 0.22,2.75 c 17.16,206.87 28.5,343.59 -20.68,540.95 -72.09,361.38 -55.84,721.54 47.01,1041.57 l 0.1,0.31 0.09,0.31 c 24.8,86.81 111.08,168.76 205.14,194.87 20.24,5.62 40.43,8.47 60.01,8.47 50.68,0 96.87,-19 137.32,-56.48 31.7,-33.32 47.02,-209.71 56.18,-315.24 8.36,-96.28 15.58,-179.43 31.41,-226.58 27.8,-82.82 62.53,-162.14 99.3,-246.11 18.44,-42.09 37.5,-85.62 57.57,-133.77 28.99,-66.27 61.8,-120.92 93.53,-173.79 57.89,-96.43 107.88,-179.71 101.3,-293.47 -10.81,-186.8 -27.71,-385.79 -44.06,-578.44 -13.73,-161.7 -27.93,-328.9 -38.09,-484.96 l -0.15,-2.18 c -23.02,-353.55 -46.82,-719.14 -187.22,-1039.47 -8.32,-19 -34.72,-82.73 -65.29,-156.53 l -0.26,-0.61 c -49.67,-119.89 -111.49,-269.1 -136.58,-325.44 -30.93,-69.45 -76.72,-153.97 -125.21,-243.49 -55.34,-102.15 -112.55,-207.77 -151.29,-298.14 -62.77,-136.05 -81.56,-220.3 -107.55,-336.89 l -0.19,-0.86 c -4.6,-20.61 -9.45,-42.35 -14.87,-65.82 -0.13,-0.6 -0.25,-1.2 -0.36,-1.77 -35.05,-186.92 -5.72,-864.48 17.62,-1097.62 -132.57,-4 -569.91,-6.54 -1140.1,-6.54 -523.83,0 -1111.2,2.33 -1273.72,7.51 -44.49,135.53 -60.39,202.3 -74.47,261.42 -16.63,69.76 -31,130.07 -82.66,272.83 -0.11,1.97 -0.36,3.88 -0.73,5.76 -61.78,316.66 -60.56,593.84 -59.26,887.29 l 0.01,1.86 c 0.25,58.04 0.51,118.06 0.28,179.03 -0.37,102.26 5.48,190.52 11.68,283.98 5.5,82.95 11.18,168.74 12.25,265.73 l 0.1,8.89 c 2.29,208.43 4.1,373.06 23.64,585.64 20.32,221.06 24.23,442.81 28,657.26 l -9.99,0.18 c 0,0.01 0,0.01 0,0.02"
         style="fill:#ffffff;fill-opacity:1;fill-rule:nonzero;stroke:none"
         transform="matrix(0.13333333,0,0,-0.13333333,0,1600)" />
    </g>
  </g>
</svg>
